# xmcd
#
# Track frame offsets: 
#        150
#        20552
#        37842
#        59402
#        79253
#        97510
#        115089
#        136918
#        153959
#        170440
#        191586
#
# Disc length: 2810 seconds
#
# Revision: 2
# Processed by: cddbd v1.5.2PL0 Copyright (c) Steve Scherf et al.
# Submitted via: ExactAudioCopyFreeDBPlugin 1.0
#
DISCID=7d0af80b
DTITLE=이승철 - 8집 Reflection Of Sound
DYEAR=2006
DGENRE=K-pop
TTITLE0=하얀새
TTITLE1=소리쳐
TTITLE2=Annie
TTITLE3=나를 믿어줘
TTITLE4=Wish
TTITLE5=작은 기대
TTITLE6=우리
TTITLE7=시계
TTITLE8=저.. 있잖아요
TTITLE9=우리 사랑을 해요
TTITLE10=떠나지마
EXTD=YEAR: 2006\n
EXTT0=
EXTT1=
EXTT2=
EXTT3=
EXTT4=
EXTT5=
EXTT6=
EXTT7=
EXTT8=
EXTT9=
EXTT10=
PLAYORDER=
